<svg width="20" height="20" viewBox="0 0 20 20" fill="none" xmlns="http://www.w3.org/2000/svg">
<path d="M10.8334 18.3332H4.16675C2.50008 18.3332 1.66675 17.4999 1.66675 15.8332V9.16655C1.66675 7.49988 2.50008 6.66655 4.16675 6.66655H8.33342V15.8332C8.33342 17.4999 9.16675 18.3332 10.8334 18.3332Z" stroke="white" stroke-width="1.5" stroke-miterlimit="10" stroke-linecap="round" stroke-linejoin="round"/>
<path d="M8.42507 3.33345C8.3584 3.58345 8.33342 3.85845 8.33342 4.16678V6.66678H4.16675V5.00012C4.16675 4.08345 4.91675 3.33345 5.83341 3.33345H8.42507Z" stroke="white" stroke-width="1.5" stroke-miterlimit="10" stroke-linecap="round" stroke-linejoin="round"/>
<path d="M11.6667 6.66655V10.8332" stroke="white" stroke-width="1.5" stroke-miterlimit="10" stroke-linecap="round" stroke-linejoin="round"/>
<path d="M15 6.66655V10.8332" stroke="white" stroke-width="1.5" stroke-miterlimit="10" stroke-linecap="round" stroke-linejoin="round"/>
<path d="M14.1667 14.1665H12.5001C12.0417 14.1665 11.6667 14.5415 11.6667 14.9999V18.3332H15.0001V14.9999C15.0001 14.5415 14.6251 14.1665 14.1667 14.1665Z" stroke="white" stroke-width="1.5" stroke-miterlimit="10" stroke-linecap="round" stroke-linejoin="round"/>
<path d="M5 10.8335V14.1668" stroke="white" stroke-width="1.5" stroke-miterlimit="10" stroke-linecap="round" stroke-linejoin="round"/>
<path d="M8.33325 15.8332V4.16655C8.33325 2.49988 9.16659 1.66655 10.8333 1.66655H15.8333C17.4999 1.66655 18.3333 2.49988 18.3333 4.16655V15.8332C18.3333 17.4999 17.4999 18.3332 15.8333 18.3332H10.8333C9.16659 18.3332 8.33325 17.4999 8.33325 15.8332Z" stroke="white" stroke-width="1.5" stroke-miterlimit="10" stroke-linecap="round" stroke-linejoin="round"/>
</svg>
