<svg width="50" height="50" viewBox="0 0 50 50" fill="none" xmlns="http://www.w3.org/2000/svg">
<path d="M46.0937 16.4062H47.2656C48.9594 16.4062 50.3062 14.8453 49.939 13.0914C49.6719 11.8141 48.4812 10.9375 47.1758 10.9375H39.8437C38.9804 10.9375 38.2812 10.2383 38.2812 9.375C38.2812 8.51172 38.9804 7.8125 39.8437 7.8125H42.4883C43.7929 7.8125 44.9844 6.93594 45.2515 5.65859C45.6187 3.90469 44.2719 2.34375 42.5781 2.34375H26.5672H25.3906H6.6406C5.1367 2.34375 3.90623 3.57422 3.90623 5.07812C3.90623 6.58203 5.1367 7.8125 6.6406 7.8125H8.59373C9.45701 7.8125 10.1562 8.51172 10.1562 9.375C10.1562 10.2383 9.45701 10.9375 8.59373 10.9375H3.60545C2.30076 10.9375 1.10935 11.8141 0.842164 13.0914C0.474977 14.8453 1.82185 16.4062 3.5156 16.4062H14.0625V25H3.60545C2.30076 25 1.10935 25.8766 0.842164 27.1539C0.474977 28.9078 1.82185 30.4688 3.5156 30.4688H5.46873C6.33201 30.4688 7.03123 31.168 7.03123 32.0312C7.03123 32.8945 6.33201 33.5938 5.46873 33.5938H3.5156C1.82185 33.5938 0.474977 35.1547 0.842164 36.9086C1.10935 38.1859 2.30076 39.0625 3.60545 39.0625H9.37498C10.2383 39.0625 10.9375 39.7617 10.9375 40.625C10.9375 41.4883 10.2383 42.1875 9.37498 42.1875H6.73045C5.42576 42.1875 4.23435 43.0641 3.96716 44.3414C3.59998 46.0953 4.94685 47.6562 6.6406 47.6562H24.214H25.3906H41.7969C43.3008 47.6562 44.5312 46.4258 44.5312 44.9219C44.5312 43.418 43.3008 42.1875 41.7969 42.1875H40.625C39.7617 42.1875 39.0625 41.4883 39.0625 40.625C39.0625 39.7617 39.7617 39.0625 40.625 39.0625H44.832C46.1367 39.0625 47.3281 38.1859 47.5953 36.9086C47.9625 35.1547 46.6156 33.5938 44.9219 33.5938H36.7187V25H46.3945C47.6992 25 48.8906 24.1234 49.1578 22.8461C49.525 21.0922 48.1781 19.5312 46.4844 19.5312H46.0937C45.2304 19.5312 44.5312 18.832 44.5312 17.9688C44.5312 17.1055 45.2304 16.4062 46.0937 16.4062Z" fill="#EDF3FF"/>
<path d="M33.5937 8.59767C30.8031 7.6422 28.5469 6.39454 26.8351 5.24689C25.7219 4.50079 24.2789 4.50079 23.1656 5.24689C21.4531 6.39454 19.1976 7.6422 16.4062 8.59767C13.368 9.63751 10.625 10.0125 8.50546 10.1219C7.67342 10.1649 7.03046 10.8524 7.03358 11.6852C7.06327 20.0219 7.57733 30.2352 16.4062 39.0633C17.7023 40.3594 21.0633 43.032 23.1773 44.6828C24.2492 45.5195 25.75 45.5195 26.8219 44.6828C28.9359 43.032 32.2969 40.3594 33.593 39.0633C42.4219 30.2352 42.9359 20.0219 42.9664 11.6844C42.9695 10.8516 42.3258 10.1641 41.4945 10.1211C39.375 10.0117 36.632 9.63751 33.5937 8.59767Z" fill="url(#paint0_linear_114_8122)"/>
<path d="M35.9367 17.9554C35.9367 18.3539 35.7804 18.7523 35.4835 19.057L24.8656 29.675L23.7398 30.8C23.1406 31.3992 22.1679 31.3992 21.5687 30.8L20.4429 29.675L16.075 25.307C15.4734 24.6976 15.4734 23.7054 16.075 23.0961C16.3796 22.7992 16.7781 22.6429 17.1843 22.6429C17.5828 22.6429 17.9812 22.7992 18.2859 23.0961L22.6539 27.464L33.2718 16.8461C33.8812 16.2445 34.8734 16.2445 35.4828 16.8461C35.7804 17.1508 35.9367 17.5492 35.9367 17.9554Z" fill="white"/>
<defs>
<linearGradient id="paint0_linear_114_8122" x1="25" y1="4.68751" x2="25" y2="45.311" gradientUnits="userSpaceOnUse">
<stop stop-color="#00B38D"/>
<stop offset="0.428" stop-color="#0FC59E"/>
<stop offset="1" stop-color="#006842"/>
</linearGradient>
</defs>
</svg>
