<svg width="30" height="30" viewBox="0 0 30 30" fill="none" xmlns="http://www.w3.org/2000/svg">
<path d="M11.25 13.4375C9.35 13.4375 7.8125 11.9 7.8125 10C7.8125 8.1 9.35 6.5625 11.25 6.5625C13.15 6.5625 14.6875 8.1 14.6875 10C14.6875 11.9 13.15 13.4375 11.25 13.4375ZM11.25 8.4375C10.3875 8.4375 9.6875 9.1375 9.6875 10C9.6875 10.8625 10.3875 11.5625 11.25 11.5625C12.1125 11.5625 12.8125 10.8625 12.8125 10C12.8125 9.1375 12.1125 8.4375 11.25 8.4375Z" fill="#D2D2D2"/>
<path d="M18.75 28.4375H11.25C4.4625 28.4375 1.5625 25.5375 1.5625 18.75V11.25C1.5625 4.4625 4.4625 1.5625 11.25 1.5625H16.25C16.7625 1.5625 17.1875 1.9875 17.1875 2.5C17.1875 3.0125 16.7625 3.4375 16.25 3.4375H11.25C5.4875 3.4375 3.4375 5.4875 3.4375 11.25V18.75C3.4375 24.5125 5.4875 26.5625 11.25 26.5625H18.75C24.5125 26.5625 26.5625 24.5125 26.5625 18.75V12.5C26.5625 11.9875 26.9875 11.5625 27.5 11.5625C28.0125 11.5625 28.4375 11.9875 28.4375 12.5V18.75C28.4375 25.5375 25.5375 28.4375 18.75 28.4375Z" fill="#D2D2D2"/>
<path d="M22.5 10.9374C21.9875 10.9374 21.5625 10.5124 21.5625 9.99992V2.49992C21.5625 2.12492 21.7875 1.77492 22.1375 1.63742C22.4875 1.49992 22.8875 1.57492 23.1625 1.83742L25.6625 4.33742C26.025 4.69992 26.025 5.29992 25.6625 5.66242C25.3 6.02492 24.7 6.02492 24.3375 5.66242L23.4375 4.76242V9.99992C23.4375 10.5124 23.0125 10.9374 22.5 10.9374Z" fill="#D2D2D2"/>
<path d="M19.9998 5.93743C19.7623 5.93743 19.5248 5.84993 19.3373 5.66243C18.9748 5.29993 18.9748 4.69993 19.3373 4.33743L21.8373 1.83743C22.1998 1.47493 22.7998 1.47493 23.1623 1.83743C23.5248 2.19993 23.5248 2.79993 23.1623 3.16243L20.6623 5.66243C20.4748 5.84993 20.2373 5.93743 19.9998 5.93743Z" fill="#D2D2D2"/>
<path d="M3.33713 24.6251C3.03713 24.6251 2.73713 24.4751 2.56213 24.2126C2.27463 23.7876 2.38713 23.2001 2.81213 22.9126L8.97463 18.7751C10.3246 17.8751 12.1871 17.9751 13.4121 19.0126L13.8246 19.3751C14.4496 19.9126 15.5121 19.9126 16.1246 19.3751L21.3246 14.9126C22.6496 13.7751 24.7371 13.7751 26.0746 14.9126L28.1121 16.6626C28.4996 17.0001 28.5496 17.5876 28.2121 17.9876C27.8746 18.3751 27.2746 18.4251 26.8871 18.0876L24.8496 16.3376C24.2246 15.8001 23.1746 15.8001 22.5496 16.3376L17.3496 20.8001C16.0246 21.9376 13.9371 21.9376 12.5996 20.8001L12.1871 20.4376C11.6121 19.9501 10.6621 19.9001 10.0246 20.3376L3.87463 24.4751C3.69963 24.5751 3.51213 24.6251 3.33713 24.6251Z" fill="#D2D2D2"/>
</svg>
