<svg width="183" height="40" viewBox="0 0 183 40" fill="none" xmlns="http://www.w3.org/2000/svg">
<g clip-path="url(#clip0_8_152)">
<path d="M39.3637 0.0185951L0 9.83379V12.4771C15.1789 12.4771 27.48 24.8011 27.48 39.9999H30.1192L40.0682 0.724214C40.1763 0.298603 39.7923 -0.0896745 39.3674 0.0185951H39.3637Z" fill="#00B38D"/>
<path d="M-3.15462e-06 24.286V26.8882C7.2204 26.8882 13.0914 32.7721 13.0914 40H15.6895C15.6895 31.3347 8.6518 24.2822 -0.00373077 24.2822L-3.15462e-06 24.286Z" fill="#00B38D"/>
<path d="M0 17.0767V19.6789C11.1866 19.6789 20.2894 28.7959 20.2894 39.9999H22.8876C22.8876 27.3585 12.6217 17.0767 0 17.0767Z" fill="#00B38D"/>
<path d="M57.0139 33.5859H53.8865V17.4276H48.3882V14.7507H62.5233V17.4276H57.0139V33.5859Z" fill="#1F1F1F"/>
<path d="M72.0996 14.7507C73.4229 14.7507 74.5561 14.9897 75.5029 15.4676C76.4497 15.9454 77.1729 16.6212 77.6798 17.4873C78.1868 18.3535 78.4366 19.3765 78.4366 20.545C78.4366 21.4373 78.28 22.2363 77.9669 22.9382C77.6538 23.64 77.2363 24.2374 76.7144 24.7265C76.1925 25.2155 75.611 25.5777 74.9773 25.8166L78.7795 33.5859H75.2643L71.8871 26.3393H67.988V33.5859H64.9016V14.7507H72.0921H72.0996ZM67.9918 23.8603H71.574C72.7296 23.8603 73.6279 23.5915 74.2616 23.0539C74.8953 22.5163 75.2122 21.7173 75.2122 20.6608C75.2122 19.6042 74.8916 18.7604 74.2542 18.1855C73.6167 17.6105 72.7482 17.3231 71.656 17.3231H67.9918V23.864V23.8603Z" fill="#1F1F1F"/>
<path d="M89.6306 14.7507C90.9166 14.7507 92.02 15.0158 92.9444 15.546C93.8689 16.0761 94.5771 16.7967 95.0729 17.7113C95.5687 18.626 95.8184 19.6677 95.8184 20.8362C95.8184 22.0048 95.5687 23.0464 95.0692 23.9611C94.5697 24.8758 93.8577 25.5964 92.9333 26.119C92.0088 26.6417 90.9017 26.9068 89.6045 26.9068H85.5414V33.5859H82.4139V14.7507H89.6343H89.6306ZM92.6239 20.8362C92.6239 19.7237 92.3219 18.8612 91.7143 18.2564C91.1067 17.6516 90.2568 17.3455 89.1646 17.3455H85.5265V24.3419H89.1646C89.8915 24.3419 90.5103 24.2038 91.0247 23.9275C91.5391 23.6512 91.9343 23.2555 92.2101 22.7328C92.486 22.2101 92.6239 21.5792 92.6239 20.8362Z" fill="#1F1F1F"/>
<path d="M101.753 33.5859H98.6253V14.7507H101.753V33.5859Z" fill="#00B38D"/>
<path d="M105.831 33.5859V18.9994H108.835V21.6203H108.988C109.115 21.2357 109.335 20.8213 109.644 20.377C109.954 19.9328 110.405 19.5594 111.001 19.2458C111.597 18.9322 112.388 18.7754 113.372 18.7754C114.833 18.7754 116.015 19.1861 116.92 20.0037C117.826 20.8213 118.277 22.0645 118.277 23.7297V33.5822H115.217V24.6257C115.217 23.879 115.094 23.2704 114.852 22.7963C114.609 22.3222 114.27 21.9675 113.838 21.7323C113.405 21.4971 112.902 21.3813 112.321 21.3813C111.575 21.3813 110.949 21.5568 110.438 21.9115C109.927 22.2661 109.544 22.7515 109.283 23.3675C109.022 23.9835 108.891 24.6891 108.891 25.4806V33.5822H105.831V33.5859Z" fill="#00B38D"/>
<path d="M121.479 23.252C121.479 22.1842 121.744 21.3218 122.273 20.6647C122.803 20.0076 123.496 19.5223 124.353 19.2161C125.211 18.91 126.131 18.7532 127.116 18.7532C128.189 18.7532 129.128 18.9249 129.934 19.2647C130.739 19.6044 131.365 20.086 131.82 20.7058C132.275 21.3255 132.502 22.0685 132.502 22.9346H129.747C129.721 22.6135 129.602 22.3037 129.397 22.0087C129.192 21.7138 128.894 21.4711 128.51 21.277C128.126 21.0828 127.634 20.9858 127.037 20.9858C126.258 20.9858 125.624 21.1612 125.144 21.5084C124.663 21.8557 124.42 22.3447 124.42 22.972C124.42 23.3752 124.536 23.7037 124.763 23.9501C124.991 24.1965 125.289 24.3907 125.651 24.5288C126.012 24.6669 126.411 24.7789 126.843 24.8611C127.276 24.9432 127.693 25.0179 128.096 25.0813C129.005 25.2381 129.822 25.4584 130.549 25.7422C131.276 26.0259 131.85 26.4403 132.271 26.9854C132.692 27.5305 132.905 28.2585 132.905 29.1807C132.905 30.1663 132.662 31.0063 132.174 31.7007C131.686 32.3951 130.992 32.9253 130.086 33.2874C129.181 33.6496 128.115 33.8325 126.884 33.8325C125.736 33.8325 124.734 33.6645 123.88 33.3285C123.026 32.9925 122.367 32.5146 121.904 31.8949C121.442 31.2751 121.207 30.5322 121.207 29.666H124.182C124.238 30.0505 124.372 30.394 124.581 30.689C124.789 30.9839 125.099 31.2079 125.505 31.3647C125.911 31.5215 126.418 31.5999 127.034 31.5999C127.712 31.5999 128.267 31.5066 128.692 31.3236C129.117 31.1407 129.43 30.8906 129.628 30.577C129.825 30.2633 129.922 29.9199 129.922 29.5428C129.922 29.035 129.758 28.6542 129.427 28.3892C129.095 28.1241 128.655 27.9262 128.103 27.7881C127.552 27.6499 126.952 27.523 126.299 27.4035C125.416 27.2206 124.611 26.9854 123.872 26.7054C123.134 26.4254 122.553 26.0147 122.124 25.4771C121.696 24.9395 121.476 24.1965 121.476 23.2482L121.479 23.252Z" fill="#00B38D"/>
<path d="M135.82 14.6127C135.82 14.0602 136.01 13.6084 136.386 13.2612C136.763 12.914 137.24 12.7385 137.818 12.7385C138.395 12.7385 138.917 12.914 139.297 13.2612C139.678 13.6084 139.868 14.0602 139.868 14.6127C139.868 15.1653 139.678 15.5983 139.297 15.9455C138.917 16.2928 138.421 16.4645 137.818 16.4645C137.214 16.4645 136.763 16.2928 136.386 15.9455C136.01 15.5983 135.82 15.1578 135.82 14.6127ZM136.315 33.586V18.9995H139.361V33.586H136.315Z" fill="#00B38D"/>
<path d="M148.464 18.8091C149.153 18.8091 149.776 18.9024 150.339 19.0928C150.901 19.2832 151.379 19.5558 151.777 19.9142C152.176 20.2726 152.467 20.7019 152.653 21.1985H152.806V13.7615H155.867V33.5897H152.892V31.2563H152.739C152.639 31.6334 152.456 31.9769 152.187 32.283C151.919 32.5892 151.595 32.8542 151.211 33.0783C150.827 33.3023 150.398 33.4703 149.929 33.5972C149.459 33.7241 148.959 33.7839 148.426 33.7839C147.304 33.7839 146.331 33.5337 145.504 33.0335C144.676 32.5332 144.035 31.8126 143.58 30.8755C143.126 29.9384 142.898 28.8296 142.898 27.549V25.0514C142.898 23.7633 143.129 22.6545 143.595 21.7249C144.061 20.7953 144.71 20.0784 145.545 19.5707C146.38 19.0629 147.353 18.8128 148.467 18.8128L148.464 18.8091ZM149.317 21.3179C148.639 21.3179 148.054 21.4822 147.562 21.807C147.069 22.1318 146.689 22.606 146.417 23.2295C146.145 23.8529 146.011 24.6034 146.011 25.4845V27.0861C146.011 27.9709 146.145 28.7251 146.417 29.3486C146.689 29.972 147.077 30.4499 147.58 30.7785C148.083 31.107 148.687 31.2675 149.384 31.2675C150.081 31.2675 150.674 31.107 151.181 30.7859C151.688 30.4649 152.087 30.0056 152.374 29.412C152.661 28.8184 152.803 28.1091 152.803 27.2802V25.0738C152.803 24.3196 152.65 23.6625 152.348 23.0988C152.046 22.535 151.632 22.102 151.114 21.7884C150.596 21.4747 149.996 21.3179 149.317 21.3179Z" fill="#00B38D"/>
<path d="M165.547 33.8362C164.235 33.8362 163.095 33.5749 162.129 33.056C161.164 32.537 160.422 31.7866 159.896 30.8084C159.374 29.8303 159.11 28.6542 159.11 27.2841V25.3091C159.11 23.9277 159.386 22.7517 159.937 21.7773C160.489 20.8028 161.234 20.0561 162.178 19.5335C163.121 19.0108 164.183 18.7532 165.368 18.7532C166.554 18.7532 167.668 19.022 168.6 19.5596C169.532 20.0972 170.266 20.8551 170.799 21.8295C171.333 22.8039 171.597 23.965 171.597 25.3053V27.0153H162.144V27.7321C162.144 28.77 162.438 29.6399 163.031 30.3343C163.624 31.0287 164.459 31.3759 165.532 31.3759C166.065 31.3759 166.539 31.3012 166.953 31.1482C167.366 30.9951 167.698 30.7935 167.952 30.5396C168.205 30.2857 168.369 30.0095 168.44 29.7033H171.429C171.385 30.1252 171.236 30.577 170.982 31.0548C170.729 31.5327 170.367 31.9807 169.894 32.3989C169.42 32.817 168.824 33.1605 168.101 33.4256C167.378 33.6906 166.528 33.825 165.544 33.825L165.547 33.8362ZM162.144 25.0179H168.608V24.8237C168.608 24.0882 168.473 23.4461 168.209 22.8973C167.944 22.3485 167.568 21.9229 167.087 21.6205C166.606 21.318 166.036 21.165 165.387 21.165C164.738 21.165 164.164 21.318 163.68 21.6205C163.195 21.9229 162.815 22.3485 162.55 22.8973C162.286 23.4461 162.151 24.0845 162.151 24.8237V25.0179H162.144Z" fill="#00B38D"/>
<path d="M174.941 33.586V18.9995H177.986V21.2769H178.15C178.262 20.9446 178.46 20.59 178.751 20.2092C179.041 19.8284 179.448 19.4961 179.969 19.2161C180.491 18.9361 181.159 18.7942 181.967 18.7942C182.169 18.7942 182.355 18.8017 182.527 18.8166C182.698 18.8315 182.855 18.8502 183.004 18.8801V21.5831C182.866 21.5457 182.679 21.5196 182.437 21.5009C182.195 21.4823 181.949 21.4748 181.692 21.4748C180.875 21.4748 180.193 21.6241 179.653 21.9228C179.112 22.2215 178.706 22.6322 178.441 23.1511C178.176 23.6701 178.042 24.2562 178.042 24.9096V33.5898H174.941V33.586Z" fill="#00B38D"/>
</g>
<defs>
<clipPath id="clip0_8_152">
<rect width="183" height="40" fill="white"/>
</clipPath>
</defs>
</svg>
